<svg width="16" height="17" viewBox="0 0 16 17" fill="none" xmlns="http://www.w3.org/2000/svg">
<g clip-path="url(#clip0_64_109)">
<rect width="16" height="16" transform="translate(0 0.0828857)" fill="white" fill-opacity="0.01" style="fill:white;fill-opacity:0.01;"/>
<g clip-path="url(#clip1_64_109)">
<path d="M7.99966 3.58203C7.99966 3.44942 7.94699 3.32225 7.85322 3.22848C7.75945 3.13471 7.63227 3.08203 7.49966 3.08203C7.36706 3.08203 7.23988 3.13471 7.14611 3.22848C7.05234 3.32225 6.99966 3.44942 6.99966 3.58203V9.08203C6.99969 9.17016 7.02302 9.25672 7.06727 9.33294C7.11152 9.40915 7.17514 9.47232 7.25166 9.51603L10.7517 11.516C10.8665 11.5781 11.0011 11.5928 11.1266 11.557C11.2522 11.5211 11.3587 11.4376 11.4235 11.3242C11.4883 11.2109 11.5062 11.0767 11.4733 10.9503C11.4404 10.824 11.3595 10.7155 11.2477 10.648L7.99966 8.79203V3.58203Z" fill="#212529" style="fill:#212529;fill:color(display-p3 0.1294 0.1451 0.1608);fill-opacity:1;"/>
<path d="M7.99966 16.082C10.1214 16.082 12.1562 15.2392 13.6565 13.7389C15.1568 12.2386 15.9997 10.2038 15.9997 8.08203C15.9997 5.9603 15.1568 3.92547 13.6565 2.42518C12.1562 0.924886 10.1214 0.0820313 7.99966 0.0820312C5.87793 0.0820313 3.8431 0.924886 2.34281 2.42518C0.842519 3.92547 -0.000335693 5.9603 -0.000335693 8.08203C-0.000335693 10.2038 0.842519 12.2386 2.34281 13.7389C3.8431 15.2392 5.87793 16.082 7.99966 16.082ZM14.9997 8.08203C14.9997 9.93855 14.2622 11.719 12.9494 13.0318C11.6367 14.3445 9.85618 15.082 7.99966 15.082C6.14315 15.082 4.36267 14.3445 3.04992 13.0318C1.73716 11.719 0.999664 9.93855 0.999664 8.08203C0.999664 6.22552 1.73716 4.44504 3.04992 3.13228C4.36267 1.81953 6.14315 1.08203 7.99966 1.08203C9.85618 1.08203 11.6367 1.81953 12.9494 3.13228C14.2622 4.44504 14.9997 6.22552 14.9997 8.08203Z" fill="#212529" style="fill:#212529;fill:color(display-p3 0.1294 0.1451 0.1608);fill-opacity:1;"/>
</g>
</g>
<defs>
<clipPath id="clip0_64_109">
<rect width="16" height="16" fill="white" style="fill:white;fill-opacity:1;" transform="translate(0 0.0828857)"/>
</clipPath>
<clipPath id="clip1_64_109">
<rect width="16" height="16" fill="white" style="fill:white;fill-opacity:1;" transform="translate(0 0.0828857)"/>
</clipPath>
</defs>
</svg>
