<svg width="48" height="48" viewBox="0 0 48 48" fill="none" xmlns="http://www.w3.org/2000/svg">
<g clip-path="url(#clip0_27_1131)">
<path d="M34.7996 29.5148C33.1902 28.2846 31.527 27.1388 29.8385 26.0335C30.4564 24.7709 30.9658 23.6331 31.3483 22.6732C31.517 22.7635 31.7117 22.8251 31.9349 22.8451C41.2066 23.6731 49.4 11.6703 47.0634 2.96421C47.0917 2.4099 47.0886 1.89149 47.0442 1.42875C46.9991 0.960885 46.633 0.6146 46.1593 0.678726C45.8071 0.0872201 44.838 -0.238801 44.2534 0.209318C40.5671 3.03526 37.468 6.90827 34.4317 10.3898C32.0416 13.1306 28.1919 16.8918 27.2436 20.6661C26.3533 21.3399 25.4737 22.0289 24.6126 22.7425C21.7159 20.9628 18.8109 19.1957 16.013 17.2599C17.5417 15.4477 17.9509 13.0075 16.8181 10.8593C15.2011 7.79296 10.4293 5.96201 7.17576 5.89968C5.78344 5.873 5.66262 7.77603 6.86308 8.20928C9.49459 9.15912 12.8836 9.34201 14.536 11.9815C14.9572 12.6543 15.0395 13.3605 14.8841 14.0353C13.8111 13.096 12.3426 12.5222 11.1031 11.8553C9.62695 11.0606 8.11919 10.2847 6.52936 9.74422C5.43254 9.37125 5.21271 11.1032 6.03738 11.3551C7.39148 12.0966 8.7579 12.8056 10.0897 13.5893C11.3104 14.3077 12.6173 15.3212 14.0232 15.649C13.9527 15.7321 13.8857 15.8173 13.809 15.8965C13.461 16.2564 13.0944 16.5396 12.7202 16.7853C12.684 16.6776 12.6337 16.5701 12.5529 16.4668C12.0325 15.7996 11.0903 15.4518 10.3639 15.0519C9.40943 14.5263 8.44983 14.0112 7.50768 13.4631C6.86693 13.0901 4.6902 10.9662 3.91888 11.6378C2.47629 12.8939 8.42418 16.5004 10.8777 17.58C7.76239 18.2513 4.33263 16.1084 2.37907 13.5285C1.63186 12.5414 0.0497251 13.3787 0.678168 14.5227C2.35085 17.5682 5.0034 19.7044 8.48292 20.1669C10.1946 20.3944 11.9996 20.0163 13.5543 19.2014C15.8026 21.6654 17.877 24.2761 19.9401 26.8971C18.3597 28.3928 16.8202 29.9278 15.326 31.4909C12.5652 34.3789 5.15884 41.7212 8.37647 46.294C12.2841 51.8469 19.9557 42.8314 25.5273 33.8069C26.3166 34.7298 27.1169 35.643 27.9485 36.5305C31.8808 40.727 37.1836 45.7594 43.4267 44.7198C43.7573 44.6646 43.9689 44.3048 43.9774 43.9967C44.1467 37.8431 39.3626 33.0033 34.7996 29.5148ZM37.2505 11.9091C39.5891 9.12526 42.0487 6.46477 44.5746 3.85788C45.026 5.22301 45.0714 6.71025 44.7967 8.21492C44.0941 10.4735 43.0017 12.8205 41.6429 14.8149C39.5993 17.373 36.856 19.3402 34.1006 19.8691C33.2736 19.8214 32.4341 19.5808 31.5914 19.0875C31.6994 18.9864 31.8089 18.8861 31.9169 18.7848C32.1042 18.6094 32.1224 18.3788 32.0447 18.181C33.5594 16.8146 34.7973 15.1401 35.9603 13.3879C36.4112 12.8823 36.848 12.388 37.2505 11.9091ZM32.4897 30.6539C32.3543 30.5501 32.2196 30.4444 32.0842 30.34C32.1234 30.2002 32.1355 30.054 32.1132 29.9078C32.2968 30.0314 32.4815 30.1599 32.6657 30.2871C32.5877 30.3987 32.529 30.5231 32.4897 30.6539Z" fill="#FD7E14" style="fill:#FD7E14;fill:color(display-p3 0.9922 0.4941 0.0784);fill-opacity:1;"/>
</g>
<defs>
<clipPath id="clip0_27_1131">
<rect width="48" height="48" fill="white" style="fill:white;fill-opacity:1;"/>
</clipPath>
</defs>
</svg>
